/* XPM */
static char *df99d207bb824af6d9ad3a0c7274b6effq5o1imDkYajTte5[] = {
/* columns rows colors chars-per-pixel */
"62 64 168 2 ",
"   c None",
".  c #070808",
"X  c #0D0D0C",
"o  c #110F0E",
"O  c #11100F",
"+  c #141211",
"@  c #1A1514",
"#  c #1E1916",
"$  c #17191A",
"%  c #1C1A1A",
"&  c #201716",
"*  c #211A17",
"=  c #231D1A",
"-  c #2A1D1D",
";  c #26201D",
":  c #2B221E",
">  c #31241E",
",  c #2F1F20",
"<  c #222324",
"1  c #2E2520",
"2  c #252729",
"3  c #26282A",
"4  c #2C2C2F",
"5  c #332521",
"6  c #3B2625",
"7  c #342A23",
"8  c #3B2B24",
"9  c #3E2728",
"0  c #372E28",
"q  c #3E2A29",
"w  c #3A3127",
"e  c #3C3129",
"r  c #2B2F31",
"t  c #322E32",
"y  c #2B3236",
"u  c #2B353C",
"i  c #2E383F",
"p  c #3E393E",
"a  c #412E25",
"s  c #452B2B",
"d  c #492E2D",
"f  c #453126",
"g  c #493227",
"h  c #45342C",
"j  c #4C322D",
"k  c #4F382D",
"l  c #52352D",
"z  c #543A2D",
"x  c #5B3C2E",
"c  c #4E3331",
"v  c #473931",
"b  c #4B3B34",
"n  c #523733",
"m  c #543A33",
"M  c #5C3D33",
"N  c #5E3F38",
"B  c #613F32",
"V  c #4D403B",
"C  c #5C4233",
"Z  c #5F4936",
"A  c #5E423B",
"S  c #5D493E",
"D  c #554139",
"F  c #654233",
"G  c #694533",
"H  c #644A36",
"J  c #6E4A36",
"K  c #64453B",
"L  c #68473B",
"P  c #654A3C",
"I  c #6B4B3D",
"U  c #714B37",
"Y  c #734D3B",
"T  c #66533E",
"R  c #6B523D",
"E  c #73533C",
"W  c #79573E",
"Q  c #7A583E",
"!  c #3F3A40",
"~  c #323D44",
"^  c #344049",
"/  c #3A4751",
"(  c #3C4953",
")  c #3E4E59",
"_  c #444C52",
"`  c #485158",
"'  c #6D4E40",
"]  c #614F48",
"[  c #6C5442",
"{  c #635049",
"}  c #6E5748",
"|  c #745344",
" . c #7A5543",
".. c #745D44",
"X. c #7C5A43",
"o. c #735749",
"O. c #7C5C4C",
"+. c #725A4A",
"@. c #7F5F50",
"#. c #766046",
"$. c #7D6247",
"%. c #7C614F",
"&. c #7E6351",
"*. c #475A67",
"=. c #4A5C69",
"-. c #525F68",
";. c #4D616F",
":. c #50606B",
">. c #5A666F",
",. c #536572",
"<. c #5B6771",
"1. c #616E77",
"2. c #616E78",
"3. c #62717B",
"4. c #815B45",
"5. c #885F45",
"6. c #815D4B",
"7. c #805F50",
"8. c #826246",
"9. c #8E6346",
"0. c #85614C",
"q. c #89644F",
"w. c #856B4D",
"e. c #886A4C",
"r. c #916546",
"t. c #926648",
"y. c #95694A",
"u. c #9C6E4C",
"i. c #9F704D",
"p. c #846352",
"a. c #8A6754",
"s. c #8E6B55",
"d. c #8D6B58",
"f. c #916D57",
"g. c #916E59",
"h. c #8D7151",
"j. c #917454",
"k. c #9C7352",
"l. c #96725C",
"z. c #99755E",
"x. c #A0714E",
"c. c #A27551",
"v. c #A57B56",
"b. c #A97D57",
"n. c #A57E5A",
"m. c #AA7E58",
"M. c #9A7760",
"N. c #9E7A62",
"B. c #A17D65",
"V. c #A6815D",
"C. c #AD825B",
"Z. c #B0855C",
"A. c #B2885F",
"S. c #AB8660",
"D. c #AF8A62",
"F. c #B48C63",
"G. c #B69065",
"H. c #B99267",
"J. c #BC9569",
"K. c #BF996B",
"L. c #C09A6C",
"P. c #677680",
"I. c #697985",
"U. c #6E8697",
"Y. c #6F8899",
"T. c #708390",
"R. c #899FAF",
"E. c #8BA2B2",
/* pixels */
"                                                                                                                            ",
"                                                                                                                            ",
"                                                                                                                            ",
"                                                                                                                            ",
"                                                                                                                            ",
"                                                                                                                            ",
"                                                                                                                            ",
"                                                                                                                            ",
"            d d d s d                             d d d s d d s d                             d s d d s                     ",
"          m F L K G K C                           m G G K G G G N 0                         B K F K F K M                   ",
"        s F 8.y.t.y.t.Y j                     + 1 R y.y.t.t.y.y.W 7 $                     h I 9.y.y.y.9.K s                 ",
"      s s K k.C.C.Z.m. .q 5                 9 % 7 X.C.C.C.C.C.Z.0.7 % 5                 5 6 R n.Z.C.C.v.J d s               ",
"    d s s ' V.J.H.J.G...1 - s d d d d s d d a = 7 w.H.H.G.H.H.J.h.w * 9 d d d d d d d s , 1 T G.J.H.J.D.| a s d             ",
"  j n l s ' S.K.K.K.H.#.1 1 n M N B N N N M j : 7 w.K.K.J.K.K.K.j.w - g M M N B N N B l 5 = T G.L.J.L.F. .d j m j           ",
"s j x l j ' S.K.J.K.H.#.> > M L [ ' [ ' ' L x : 0 w.J.K.K.H.J.K.j.e ; z L I [ [ ' ' I B 6 ; [ G.L.H.J.F.| h l M l s         ",
"s d s a a ' S.K.J.K.H.#.: ; 8 f h h j j h f 7 = 7 w.J.K.H.H.K.K.j.w = 8 s h j h v h h a : = [ G.L.J.K.D. .d s a s d         ",
"s a 1 5 q ' S.K.H.L.H.#.: $ = ; ; ; ; ; = = = $ 0 w.J.J.J.J.K.K.j.e @ = ; = ; - ; ; = = $ ; T G.K.J.K.D. .s 5 1 q s         ",
"s n ] D d ' S.K.K.L.H.#.: ; 8 f h h j h h h 8 = 7 w.J.L.J.J.K.K.j.8 = 7 f j h h h h f a ; ; [ G.L.K.K.D.| h D ] b s         ",
"s N a.p.m P S.J.H.J.G.#.: 8 C Y | | | o.| J x > 7 w.H.H.J.G.J.H.j.e : z L | | o. . .R F 8 ; T G.K.H.K.S.| n @.d.K s         ",
"s N g.a.M A k.C.b.C.v.R : > G X.s.f.f.f.a. .x > > ..C.C.V.V.C.C.8.0 : z W a.f.d.d.s.8.J 8 ; Z k.m.m.C.k.P n @.l.' s         ",
"s A d.a.n K t.c.x.c.x.H ; 8 F 8.M.B.N.B.z.4.M > 7 R i.c.x.x.x.x.Q 7 : z 4.l.n.N.N.N.q.G 8 : C i.c.c.c.y.L m 7.g.' s         ",
"s A d.p.m K k.F.Z.A.C.[ : > F 0.N.B.B.B.M.4.x > 7 $.A.A.A.A.A.A.e.8 : x  .z.B.N.B.N.a.H 8 : H V.F.D.D.n.I n p.f.K s         ",
"s N d.p.m K n.J.G.H.F...: 7 F 0.M.B.N.B.z.4.x > 7 $.H.H.G.G.G.H.h.w : x  .l.B.N.B.N.q.G > : T D.H.G.H.C.' n 7.g.] s         ",
"s A d.a.m K k.m.b.m.v.R : > G 0.N.B.B.B.z.4.x > 7 Q b.b.b.b.C.C.8.> - x  .l.B.B.B.B.q.G 8 ; Z k.m.b.m.c.L n 7.g.B s         ",
"9 A d.a.m K y.c.c.c.i.K : > G 0.N.B.N.B.l.4.x > > E c.c.x.c.c.c.Q w : z Q l.B.B.B.B.q.G 8 - C u.c.c.c.y.K n @.g.] s         ",
"s A d.7.m L v.F.D.F.C.| : 8 G 0.N.B.B.B.z.4.B > 7 $.A.F.A.A.A.F.e.w : x Q z.B.B.B.B.q.G 8 : T C.F.F.F.m.' n @.g.B s         ",
"s N d.p.n P n.H.G.G.F...: > F 8.l.M.z.M.l.4.B > > w.H.H.A.G.G.G.h.e : x  .f.z.z.M.l.0.H 8 ; R A.H.G.H.C.[ n @.g.' s         ",
"s ] d.d.n K k.m.v.C.c.T : 8 F  .6.p.0.p.6.E B > > ..b.v.v.b.b.b.$.> : x Y 6.q.q.p.0. .G a = Z k.m.b.m.k.L n &.l.] s         ",
"s n o.o.n B 9.x.u.x.u.H ; > z F K K P K A C k ; 7 R i.i.u.u.u.u.Q 7 = k M K K K K K C x > ; C y.x.u.x.r.K n ' &.A s         ",
"d s p h d B t.u.u.i.y.H ; # : : 1 5 1 1 1 1 : # : E i.i.u.u.u.i.Q 7 # : 5 1 1 1 7 1 : : = = C y.x.u.x.r.G d s h d d         ",
"9 q e e s K 9.x.u.x.u.H ; # ; 7 0 0 0 0 0 7 ; % : E i.i.u.u.i.i.Q 7 # = 7 7 0 0 0 0 7 : # ; C y.x.u.x.y.L s q e q q         ",
", e +.} n N t.u.u.x.u.H ; > z I &.&.&.&.O.P g : > E i.i.u.i.i.i.Q 7 = h Z O.&.&.&.%.[ z > ; x u.x.u.x.y.L b [ +.v <         ",
"% v 7.7.x x 5.r.r.r.9.C - 7 G 4.g.M.M.M.f.Q F > > G r.r.r.r.r.r.U 7 > z Q f.l.z.M.l.6.G a = z 8.y.r.r.5.B n O.p.b =         ",
"< q ' ' l l U U U Y U g = 8 F Q 6.6.6.6.6.E B > : x U U U U U U x : > z Y 4.6.6.6.O. .G a = f J U U U U l n ' | e <         ",
"% 0 K ' l d B U G G F a = 8 F J | | | | Y Y C > - g B G G B G B k : > x G | | | | | I G a = 8 F B G G B l d L L e ,         ",
"= 0 L L l l B B G G F f = 8 F I | | | | ' Y F > : g G G B G G G k ; : x U | | | | | Y F a = a F G G G B n d L L e =         ",
"< 8 K K l l B B G G F f = 8 F Y |  . .|  .Y C > : v ] ] ] ] ] ] V : > C Y |  . .| | Y G a = a B G G U B l l B J 8 <         ",
"% 7 M B d l B B F G F f ; 8 F Y | |  .| E U x > ; _ >.<.>.>.<.<.` 1 > x L |  .|  . .' G a - a B G G B B l d B x 8 ;         ",
"# ; 8 g d j x B x x x 8 # : f k b n n n z g f * 2 :.Y.Y.U.U.Y.Y.,.r = > g n n n z b z g > * 7 x x x B x l d g a : %         ",
"+ + # - 9 d d j j j g > @ + # % * = * % * # # O 2 3.E.E.R.R.E.E.I.y O # # * # # = # * * + + - d g j d d d s - & + +         ",
"o o o $ - 5 , , 5 - , & O X O = 7 7 7 7 8 7 5 @ < =.T.I.2.2.P.U.>.3 @ : 5 5 5 5 6 7 = + X O # 1 , , , , , - $ O o X         ",
"  X o + + + @ @ + $ @ @ + O + q K I I P P ' C > $ ~ ) y < , r ( ^ % : C K ' ' P ' P f @ o O + @ @ @ @ $ @ @ + O X           ",
"    O # 7 8 q 8 6 8 6 6 6 = @ 7 K L K K L L M 1 $ y ~ ~ u u u ^ ~ $ ; m ' ' K ' L K q # = 0 q 5 6 8 8 8 q 7 * O X           ",
"    o : D ' I I ' K ' ' P f # , d d c d d d s = $ u ( =.;.;.=.) u % * a d d d d j d : $ 6 P ' ' I P P ' ' F 5 O .           ",
"    X , m L K K ' B ] ' B q @ - s s s s s s s & $ u ( *.;.;.=.) ~ $ & 6 s s s s s s , @ 7 B ' K P K K K K M , O .           ",
"    O = a d d d d d d d d , + - s d s d d d s & % y / / / ( / / u $ & 6 d s s s d s - @ , d d d h d d d d s = O .           ",
"    O & 6 d d s s s s s s , + , s s s s s d 9 & $ r ! ! ! ! ! ! r $ & 9 d s d d s s , + = 9 s s s s d s s s = O .           ",
"    O & 9 d s s s s s s q , + , s d d s s s s * $ 5 d s d s s s 6 $ & 9 d s s s d s , @ - s d s s d s s d a = + .           ",
"    + # a d d s d s s d s , + - s d d d s d s & @ 5 d d s s d d 6 @ & 9 d s d d d s , + - s d d d s s d d s * +             ",
"    O % 6 s s s s s s s s - @ - 9 s s a s s 9 = @ , s s s s s s 6 @ % 6 s s s a s s , @ = 9 s s s s s s s 9 * +             ",
"      @ = - - - - - - - - # + @ - - - - , , = @ + & - - - - = , & + @ = - - - - - - % + @ - - - - - - - - = @ X             ",
"        O + + + O + O + + + O + + + + + O + O O + + + O + + + + + + O + + O + + + + + O + + + + O + + O + + X               ",
"                                                                                                                            ",
"                                                                                                                            ",
"                                                                                                                            ",
"                                                                                                                            ",
"                                                                                                                            ",
"                                                                                                                            ",
"                                                                                                                            ",
"                                                                                                                            ",
"                                                                                                                            ",
"                                                                                                                            ",
"                                                                                                                            ",
"                                                                                                                            "
};
