/* XPM */
static char *_5b1c4d591ee49c0aedd0a597d7a5c6fZxPOwJZIm5uFyIjb[] = {
/* columns rows colors chars-per-pixel */
"64 64 8 1 ",
"  c #C39490",
". c #DCCABE",
"X c #D1B1A5",
"o c #AD707B",
"O c #6E5967",
"+ c #B77F83",
"@ c #926475",
"# c white",
/* pixels */
"  ...X XX   oOOo   X XX...X XX               oOOo   X X..XX XX  ",
"             OO                               OO                ",
"             OO+                              OO                ",
"            +OOO OO oo o                      OO                ",
"    o oo OOOOOO+  XX X                        OO                ",
"      X XX   OO                               OO                ",
"            oOOo                             oOOo               ",
"OOOOOOOOOOOOOOOOOOOOOOOOOOOOOOOOOOOOOOOOOOOOOOOOOOOOOOOOOOOOOOOO",
"@oo+   XX X   ...XX          oOo   X XXX..XXX             +oo@OO",
"ooo                           O                            oooOO",
"ooo                ooo  o  OOOO                            oooOO",
"@oo                     XX X +O                            oo@OO",
"OOo++ +                       O                      ooo o OOOOO",
"ooo  X XX                     O                     X XX X oooOO",
"@oo+                         oOo                          +oo@OO",
"OOOOOOOOOOOOOOOOOOOOOOOOOOOOOOOOOOOOOOOOOOOOOOOOOOOOOOOOOOOOOOOO",
" X.X   XX   oOOo    XXXXX  X                 oOOo    X..X  X    ",
"             OO                               OO                ",
"             OO                    o ooooo  OOOO                ",
"             OO                     X XXX    +OO                ",
"             OO                               OO                ",
"             OO                               OO                ",
"            oOOo                             oOOo               ",
"OOOOOOOOOOOOOOOOOOOOOOOOOOOOOOOOOOOOOOOOOOOOOOOOOOOOOOOOOOOOOOOO",
"@oo+  XX....X  XXX           oOo   X XXXXX                +oo@OO",
"ooo                           O                            oooOO",
"ooo                   oo o  OOO                     o oo oooOOOO",
"ooo                  X XX    +O                      X XX  oo@OO",
"ooo                           O                            oooOO",
"ooo                           O                            oooOO",
"@oo+                         oOo                          +oo@OO",
"OOOOOOOOOOOOOOOOOOOOOOOOOOOOOOOOOOOOOOOOOOOOOOOOOOOOOOOOOOOOOOOO",
"X....XX X   oOOo   X XX...X XX               oOOo   X X...X XX  ",
"             OO                               OO                ",
"             OO                               OO                ",
"            +OO                              +OO                ",
"     o oo OOOOO                      oo o OOOOOO                ",
"      X XX   OO                        X XX   OO                ",
"            oOOo                             oOOo               ",
"OOOOOOOOOOOOOOOOOOOOOOOOOOOOOOOOOOOOOOOOOOOOOOOOOOOOOOOOOOOOOOOO",
"@oo+  X...X X                oOo   X XXX...XX             +oo@OO",
"ooo                           O                            oooOO",
"ooo                ooo  o  OOOO                    ooo  oo OOOOO",
"ooo                 X   XX X +O                   X XXX XX oo@OO",
"ooo                           O                            oooOO",
"ooo                           O                            oooOO",
"@oo+                         oOo                          +oo@OO",
"OOOOOOOOOOOOOOOOOOOOOOOOOOOOOOOOOOOOOOOOOOOOOOOOOOOOOOOOOOOOOOOO",
"XX...X X    oOOo    XX..X  X                 oOOo   X...X  XX   ",
"             OO                               OO                ",
"             OO                    o ooooo  OOOO                ",
"             OO                     X XXX    +OO                ",
"             OO                               OO                ",
"             OO                               OO                ",
"            oOOo                             oOOo               ",
"OOOOOOOOOOOOOOOOOOOOOOOOOOOOOOOOOOOOOOOOOOOOOOOOOOOOOOOOOOOOOOOO",
"@oo+  ...X   X XX            oOo   X X...X                +oo@OO",
"ooo                           O                            oooOO",
"ooo                   oo o  OOO                            oooOO",
"OOO oo o               XX    +O+                           oooOO",
"ooo  XXX XX                   OOOOO oo o                   oooOO",
"ooo                           O      XXX X                 oooOO",
"@oo+                         oOo                          +oo@OO",
"OOOOOOOOOOOOOOOOOOOOOOOOOOOOOOOOOOOOOOOOOOOOOOOOOOOOOOOOOOOOOOOO"
};
