/* XPM */
static char *_64573f05d0a487d9aa3aafb4a8c7890OGFHBFE9rMYdhAUm[] = {
/* columns rows colors chars-per-pixel */
"64 64 59 1 ",
"  c None",
". c #4C2713",
"X c #4F2913",
"o c #512A13",
"O c #562F18",
"+ c #553017",
"@ c #563118",
"# c #5B341B",
"$ c #5E391F",
"% c #5E3C23",
"& c #623D23",
"* c #5F4227",
"= c #644126",
"- c #63442A",
"; c #68472C",
": c #66492D",
"> c #694A2E",
", c #664630",
"< c #674931",
"1 c #6A4E31",
"2 c #674F3A",
"3 c #6C5132",
"4 c #6F5538",
"5 c #715536",
"6 c #725837",
"7 c #725738",
"8 c #755A3A",
"9 c #795D3D",
"0 c #7C613F",
"q c #6C5742",
"w c #6D5A46",
"e c #7B5F40",
"r c #715E49",
"t c #7D6343",
"y c #72604B",
"u c #766551",
"i c #796955",
"p c #7A6A58",
"a c #816645",
"s c #836846",
"d c #846748",
"f c #856B4A",
"g c #886D4C",
"h c #8A714E",
"j c #8D7451",
"k c #8F7855",
"l c #917752",
"z c #927A56",
"x c #947E5A",
"c c #96815D",
"v c #98835F",
"b c #9A8561",
"n c #9D8862",
"m c #93836D",
"M c #958570",
"N c #968874",
"B c #9E8F7B",
"V c #9A8F80",
"C c #999081",
/* pixels */
"                                                                ",
"                                                                ",
"                                                                ",
"                                                                ",
"                                                                ",
"                                                                ",
"                                                                ",
"                                                                ",
"               ##%#%#&%=&&&&;&&&===&%=%%%$#$%#%                 ",
"               #BMM%gggfggggdgggffffffffff*mmB%                 ",
"               #B,,gjjkkzzzzxxlxzxxzlzzjjjj--B$                 ",
"               $<asO@@#@3558899998775>##@@@tt1$                 ",
"               $xdd#eeea#########@###Ottt8@ask$                 ",
"               &xdf#faeaa$000aa00aa0&aaatf#dsk$                 ",
"               &xggO#ggadd&ddddddda;ggdgg##ddk$                 ",
"               &xdg#3%#lgdg&&8009;;gggl#$8%ddz=                 ",
"               =xff$600#lgggh;00,hhjfl#899=fgz&                 ",
"               &chh=80a0$xgghl&&gghlxOae98&hgx&                 ",
"               =chh=0sggg#xlllhh>gjx#dfgff=hhx&                 ",
"               &zhh=0sgggg#vxlhll>x#ggdggf=jhc=                 ",
"               -xgg&agggggg$$xgllh#gggffdd=lhx=                 ",
"               =xll&0ggggg;hl#bbhhg5ggffgd=jjb=                 ",
"               &xll$5989;;gggx##xjgg;;eeee&ljb&                 ",
"               =zll#599;ghhlb#0a&xgggf;ee9&jjn&                 ",
"               &xll#58;dghhv#a0aa#xdgdd,99#jjb&                 ",
"               &xll#&$gggvv#a0a0aa#ljdaa&&#jjb%                 ",
"               $xhh#9ddgj##ggdddaddO#jeett#jjb#                 ",
"               #xllO9ddg#90sdddddddae#gat9@hhx@                 ",
"               $&ll#O#$$$$&&&&&=&&&&&&###@#jj,#                 ",
"               $N;<gdjjllllllllllllljjjggfa,-No                 ",
"               @VVV&xxbxvvvvnnnnnnnvnxxnxx,BVVo                 ",
"               @uuuOe9aaaasaaaassdasddddatoippo                 ",
"               @rro99aaaaaaatadassaaasaaa0a+yyo                 ",
"               o2o999aeattttaaaaasaadaattt00X8o                 ",
"               ooa9oXoXX@@O@@@OO##O#+@@@ooXtt.X                 ",
"               X989o31450o--1114>3;=o01>1:X9t0X                 ",
"               o889oX3556eo-313334:X055>>oX099o                 ",
"               o999o1Xo567too3434oX0433oX:o099o                 ",
"               o999o33:X488tto44Xt0355o->3X898X                 ",
"               X888o33::X7888fXof3555X:-33X886X                 ",
"               X888X33<>:+X088st**4XX:--31X866X                 ",
"               X888X33>>:::X8887tfX11<::31X435X                 ",
"               X866X13:::XXt**8688tXX<::31X455X                 ",
"               X666X11::.tt544XX788tt.::11X444X                 ",
"               X664X<1-X94446X33X8878yX-11X636X                 ",
"               X446X<1X8344XX3>11.X866eX<1X663X                 ",
"               X367XX.7334X-:>111:*X665aXoX333o                 ",
"               X133X44133X-->>::1:**.31<trX333X                 ",
"               X333X:331X***::>:::***X3:1:X333X                 ",
"               XX33XXXX.XXooooooooooXXXoXXX33XX                 ",
"               XuX30ttttttisisftisttttttttt3XpX                 ",
"               XwiX::11:3:33:33133333313333XpwX                 ",
"               XrwuX:3333133:3331111331333XiwwX                 ",
"               XXoXXXXXoXXXXXXXXXXXXXXXXXXXXXXX                 ",
"                                                                ",
"                                                                ",
"                                                                ",
"                                                                ",
"                                                                ",
"                                                                ",
"                                                                ",
"                                                                ",
"                                                                ",
"                                                                "
};
