/* XPM */
static char *_2f05b5d789d4dbe9d01f35d6813dff5jrNiLhEAm0CJGSGj[] = {
/* columns rows colors chars-per-pixel */
"64 64 174 2 ",
"   c None",
".  c #252525",
"X  c #282827",
"o  c #262B2C",
"O  c #2B2D2D",
"+  c #252728",
"@  c #3D2F25",
"#  c #322F2B",
"$  c #34312E",
"%  c #3C332C",
"&  c #2E3030",
"*  c #333433",
"=  c #3B3632",
"-  c #3E3935",
";  c #3A3A3A",
":  c #453225",
">  c #45352A",
",  c #49362A",
"<  c #4D3A2D",
"1  c #483427",
"2  c #533B2C",
"3  c #5C3C28",
"4  c #5D3B26",
"5  c #4C3D32",
"6  c #463B33",
"7  c #543E31",
"8  c #6D3F22",
"9  c #5D412F",
"0  c #564032",
"q  c #584132",
"w  c #534338",
"e  c #57483E",
"r  c #59483E",
"t  c #6E4126",
"y  c #64422D",
"u  c #6B452E",
"i  c #724225",
"p  c #7F4421",
"a  c #73462A",
"s  c #77492C",
"d  c #674733",
"f  c #744D35",
"g  c #784F36",
"h  c #3F4141",
"j  c #444544",
"k  c #4B4946",
"l  c #4A4C4C",
"z  c #454849",
"x  c #5A4B41",
"c  c #574B43",
"v  c #50504F",
"b  c #4D4F50",
"n  c #4F5051",
"m  c #535353",
"M  c #5D5955",
"N  c #5D5D5C",
"B  c #5B5551",
"V  c #604E42",
"C  c #615045",
"Z  c #60605F",
"A  c #7B6659",
"S  c #5F6263",
"D  c #616262",
"F  c #6E6F6E",
"G  c #6C6F70",
"H  c #7C7D7D",
"J  c #80441F",
"K  c #89471F",
"L  c #9C4D1D",
"P  c #964B1E",
"I  c #814723",
"U  c #834823",
"Y  c #8B4A22",
"T  c #8A4E2A",
"R  c #944E24",
"E  c #9A4F21",
"W  c #9E5020",
"Q  c #94522A",
"!  c #975229",
"~  c #88593C",
"^  c #915A39",
"/  c #995D3A",
"(  c #905835",
")  c #A25221",
"_  c #A95725",
"`  c #AB5826",
"'  c #AE5B28",
"]  c #A55B2E",
"[  c #A75D30",
"{  c #97613F",
"}  c #B8622D",
"|  c #B5612E",
" . c #AA6236",
".. c #AD663B",
"X. c #AF683D",
"o. c #A46037",
"O. c #BF6934",
"+. c #B2693C",
"@. c #B96C3D",
"#. c #B66636",
"$. c #C36933",
"%. c #C96D35",
"&. c #C36D39",
"*. c #CB6F38",
"=. c #CD723A",
"-. c #D2763E",
";. c #895C40",
":. c #9E6C4D",
">. c #97694D",
",. c #AD6C45",
"<. c #A86D49",
"1. c #B36E43",
"2. c #B2714B",
"3. c #B27652",
"4. c #BC7E59",
"5. c #B97B56",
"6. c #807066",
"7. c #817D7A",
"8. c #CE7640",
"9. c #D07741",
"0. c #D47A43",
"q. c #DB7B42",
"w. c #B6805F",
"e. c #8E827B",
"r. c #96857B",
"t. c #BE9378",
"y. c #C0835D",
"u. c #D28253",
"i. c #C28D6C",
"p. c #D6936A",
"a. c #E39B6F",
"s. c #E19263",
"d. c #E29B70",
"f. c #7F8182",
"g. c #888888",
"h. c gray51",
"j. c #939596",
"k. c #96999A",
"l. c #9A9A9A",
"z. c #BE9880",
"x. c #B7A398",
"c. c #A4A4A4",
"v. c #ACACAC",
"b. c #BCAEA5",
"n. c #ACAEB0",
"m. c #AEB0B1",
"M. c #B3B4B5",
"N. c #BCBCBC",
"B. c #DDA685",
"V. c #C1AEA3",
"C. c #C6B5AA",
"Z. c #C6B5AB",
"A. c #D7B7A4",
"S. c #CCBEB6",
"D. c #DCC9BE",
"F. c #E9C2AB",
"G. c #CFCAC7",
"H. c #CCCCCD",
"J. c gray77",
"K. c #CDCFD1",
"L. c #CED1D1",
"P. c #D2D3D3",
"I. c #DBDCDC",
"U. c #D9D4D1",
"Y. c #EEDACE",
"T. c #EDDCD2",
"R. c #F6DFD1",
"E. c #F7E0D2",
"W. c #F0E3DC",
"Q. c #DDDFE0",
"!. c #F5F1EF",
"~. c #EFF1F2",
"^. c #F3F4F5",
"/. c #FFFFFF",
/* pixels */
"                                                                                                                                ",
"                                                                                                                                ",
"                                                                                                                                ",
"                                                                                                                                ",
"                                                                                                                                ",
"                                                                                                                                ",
"                                                                                                                                ",
"                                                                                                                                ",
"                                                                                                                                ",
"                                                                                                                                ",
"                                                                                                                                ",
"                                                                                                                                ",
"                                                                                                                                ",
"                                                                                                                                ",
"                                                                O O & O                                                         ",
"                                                                > > # &                                                         ",
"                                                            o > 8 8 > O         & O O O O *                                     ",
"                                                            > d >.>.w O         , < 7 5 % O                                     ",
"                                                        O > 8 :.A.b.M X     O > i Q o.^ 5 O                                     ",
"                                                        O , p 4.Y.H.S o     O % t T  ./ 0 o                                     ",
"                & O O X                                 O 1 I 4.Y.K.D + X O O $ % < 2 q                                         ",
"                # * k l                                 O : p 2.A.C.A 2 2 q 0 q q 5 * O                                         ",
"                O k H f.k + + X O O                     O , I ] 2.3.,.X.X.X.X...X.( 6 o                                         ",
"                X v l.v.H Z D M e 7                     O > I W L _ *.9.@.+.&.=.=. .u >                                         ",
"                X m l.J.H.H.L.Z.4.( 2 +                 o > U W L ` =.@.f y ! ' ' _ Y i , &                                     ",
"                X l H v.I.!.W.F.p.@.f 5                 : 4 U L L ` *.#.f y R _ ' ) Y 8 @ O                                     ",
"                    k F M.S.t.5.0.8.@.^ 5 o         O > i K P L L _ %.=.#...O.%.*.] 8 @ O O O #                                 ",
"                    + k 7.r./ _ %.q.q.@.g 5         O 5 ~ <.<.<.3.w.p.a.a.a.a.d.a.i.F D D m ; #                                 ",
"                        l V T ` *.0.q.8.@.^ 7 o     X k r.x.x.b.D.T.T.E.R.R.R.R.R.Y.U.P.P.v.m X                                 ",
"                        X > I ` O.=.9.q.q.X.0 O     o z f.k.k.v.I.^.^.^./././././.^.I.H.P.v.Z X                                 ",
"                        O > U ) ` | =.q.q.+.q o O O O ; z n b G m.L.H.I.~././././.I.g.N D Z                                     ",
"                        O > t Y R _ O.%.@.^ y > > , , , > : : c 7.j.j.c.N.G.G.H.H.v.M . . X                                     ",
"                            > 3 Y ) ' ! u 9 a U I I U I p p I a c b b n m N N N S N                                             ",
"                            o > i U U i < 4 Y ) ) W W ) ` ' ' ! u < 2 w M Z S n = X                                             ",
"                                > , > 2 i K P W W E L _ O.=.%.&.+... .5.C.L.P.c.m +                                             ",
"                                O O O > I ) ) ) W ) _ | -.0.q.-.=.9.u.B.T.~.Q.c.m X                                             ",
"                                    O > I ) ) L W ` &.=.0.q.0.=.| 1.z.Z.G.M.f.m ; O                                             ",
"                                    O , U E Y I I T [ +.X.@.-.&.! ~ e.k.k.7.r @ # &                                             ",
"                                    O , I Y 3 > , , 7 w 0 g @.@.u 6 k v v r s t > O                                             ",
"                                    & , a a 6 O & & & o o 7 { { 5 O o O X > s s , O                                             ",
"                                    O = 5 6 $ * * * & O O - x C - O     O % e x = O                                             ",
"                                    O * * * & $ = * * O O ; j j * &     O ; h h * O                                             ",
"                                    & & # *     * $         * * $ O         * * $ O                                             ",
"                                    O # O O     O O         O O O &         O # O *                                             ",
"                                                                                                                                ",
"                                                                                                                                ",
"                                                                                                                                ",
"                                                                                                                                ",
"                                                                                                                                ",
"                                                                                                                                ",
"                                                                                                                                ",
"                                                                                                                                ",
"                                                                                                                                ",
"                                                                                                                                ",
"                                                                                                                                ",
"                                                                                                                                ",
"                                                                                                                                ",
"                                                                                                                                ",
"                                                                                                                                ",
"                                                                                                                                ",
"                                                                                                                                ",
"                                                                                                                                ",
"                                                                                                                                ",
"                                                                                                                                "
};
