/* XPM */
static char *_be90ef157f44e5bd1dc1fb2e6086d78HxLKx7QaYUymlMXw[] = {
/* columns rows colors chars-per-pixel */
"64 64 106 2 ",
"   c None",
".  c #0B0508",
"X  c #0E0A0E",
"o  c #110B0F",
"O  c #10100F",
"+  c #120D11",
"@  c #180F12",
"#  c #161414",
"$  c #1A1516",
"%  c #1C1817",
"&  c #1B1319",
"*  c #1C1A18",
"=  c #201917",
"-  c #22171A",
";  c #221B1B",
":  c #2C1C1C",
">  c #331E1E",
",  c #27201C",
"<  c #2B211D",
"1  c #31211C",
"2  c #1D1D23",
"3  c #2F1F20",
"4  c #311F21",
"5  c #1F2125",
"6  c #2F2220",
"7  c #232529",
"8  c #26292B",
"9  c #332323",
"0  c #392424",
"q  c #322823",
"w  c #3C2827",
"e  c #3C2628",
"r  c #362A2B",
"t  c #3D2828",
"y  c #3D3027",
"u  c #3C332B",
"i  c #2D3235",
"p  c #2E343D",
"a  c #2D383F",
"s  c #31343A",
"d  c #34393D",
"f  c #383839",
"g  c #412A27",
"h  c #452B2B",
"j  c #482D2D",
"k  c #463126",
"l  c #40362B",
"z  c #4D332C",
"x  c #47382D",
"c  c #51352D",
"v  c #59392F",
"b  c #433235",
"n  c #533733",
"m  c #563B33",
"M  c #5B3C33",
"N  c #5F4437",
"B  c #644334",
"V  c #6B4A37",
"C  c #61453A",
"Z  c #6B4B3F",
"A  c #714E39",
"S  c #7A553E",
"D  c #2D3940",
"F  c #3B3F46",
"G  c #3B4047",
"H  c #35414A",
"J  c #3A434B",
"K  c #3C4A53",
"L  c #3E4F5A",
"P  c #3F505B",
"I  c #43535F",
"U  c #6D4C40",
"Y  c #7C6554",
"T  c #465662",
"R  c #485764",
"E  c #4C5F6D",
"W  c #556774",
"Q  c #536876",
"!  c #596C7A",
"~  c #696E72",
"^  c #787D7F",
"/  c #875D44",
"(  c #895D43",
")  c #856246",
"_  c #8C6549",
"`  c #90674B",
"'  c #8F7151",
"]  c #8E7059",
"[  c #917151",
"{  c #9A7656",
"}  c #947856",
"|  c #94755E",
" . c #9F7D5B",
".. c #A77A54",
"X. c #A97B55",
"o. c #A07D5B",
"O. c #9C7D66",
"+. c #B78E64",
"@. c #B88F64",
"#. c #B99065",
"$. c #BF986B",
"%. c #C0996C",
"&. c #6B7E8B",
"*. c #777D80",
"=. c #788FA0",
"-. c #8F9598",
/* pixels */
"                                                                                                                                ",
"                                                                                                                                ",
"                h h h h h h                             h h t h h h h h                             h h h h h j                 ",
"                m m M m M M                             v M M m M M M n                             m M M M M M                 ",
"            h m U / / / / S m h                     $ w A ( / / ( ) ( A w #                     h M S / / / / U m h             ",
"            h M ` ........_ n 0                     % r Y +.O.] ] |  .Y u #                     e m _ X......._ M h             ",
"        h h h C { #.+.+.@.[ x 3 0 h h h h h h h h 9 ; f ~ -.~ ~ ~ ^ -.~ f * 0 h h h h h h h h e ; x [ @.+.+.+.{ C h h h         ",
"        z j h C o.%.$.$.%.} u ; g z n n n n n n n g ; d =.=.Q T I ! =.=.d : w n n n n n n n c w ; l } %.$.$.$. .C h j z         ",
"    h z M v j C o.%.$.%.%.} l , z B V Z Z Z U Z B z < i W ! J 8 8 G ! W i , z B Z Z Z Z U Z B z , l } %.%.$.%.o.C j M v z h     ",
"    h j c c j C { #.#.#.#.' l ; g N N N C N C N N k , 8 K K 8 $ # 8 I K 8 , k v B C C C N N M k ; l [ #.@.@.@.{ C j z c j j     ",
"    j h 0 1 g M ` X.X.X.+.) y % , 6 q q q q q q < < ; * 8 8 * $ % = 7 7 5 * 6 6 q q q q q q 6 , = y ) X.....X.` M g 9 6 h j     ",
"    t 9 : ; 9 x V S S S A B 1 # # # # # # # # # $ O # $ # $ $ $ $ $ # # # # # # # # # # # # # # # 1 B S S S S Z z 9 ; 3 9 t     ",
"    ; 3 : : ; , < 1 < 1 1 : # o X # X X o X o o O O o + o o o o O o X + + X + X X O X + X o o O O # : 1 9 < 1 < : ; : : ; ;     ",
"    * * : > ; # O X o X . X o O X # o + + o # O O o # o O O # o O o + + + + + + + + o # X # + + O o o X X X X + # ; : : ; *     ",
"    * * : : * # $ # # # # # # $ # $ # # # $ # $ $ $ # # # $ $ # # $ & & & & # # # $ # # # # $ # $ # # # # # # # * * : : * *     ",
"    * ; : < : ; ; ; ; = * * * * * * * * * * * * * * % % * * * * * ; $ % & & % % * * * * * * * * * * * * * ; ; ; ; ; > : ; *     ",
"    $ ; : > : : : : > : = % % * * * * * * * * * $ * * * * * % * * * % * * % * * * * * * * * * * * * * * : : > > : > > : = *     ",
"    * * : : : : : : - - % $ $ % # $ $ $ $ # $ # # # $ $ # # $ # # $ $ # $ $ # $ # # $ $ $ # # $ # $ $ % - : : - - : : : % $     ",
"    * * ; % @ @ @ @ $ + o + o o O o o + o o O O # o o O # o o o + + # o o # O o O o o o O O o o o o O # @ @ $ @ @ $ = = * *     ",
"    * * ; * + o o o o o o O @ o o # o o o # o o o + + O o O # o + o o o o o O O + + o # o + O # + o o o o o o o o o = = % *     ",
"    % % ; : $ # # # $ # # # $ # # # % # $ $ $ # # # $ * # # # # $ $ $ # # % # # $ $ $ # # # $ # $ $ # $ # # # # # $ ; : * *     ",
"    * ; : > ; ; ; = ; ; * * * * * * * * * * * * * * * * * * * * $ * * * * * * * * * * * * * * * * * * * * , = = ; : : > ; *     ",
"    % ; : > > : > : < : , $ * * * * * * * * * * * * * * * * * * * * * * * * * * * * * * * * * $ * * * ; , > : > : > > : * *     ",
"    % = ; : : : - : : ; * # # $ # % $ # $ # $ # $ # # $ $ # # # # $ # # # % # $ # # $ # $ # $ # $ # # % ; : : - : : : ; ; *     ",
"    * * * % & + @ @ @ + + + + + O O o O + + + + + + + o o + + # # O X o + # X + + + o o + + # o + + X # + @ @ + + $ * ; % *     ",
"    * * * # + + + + + + + + + X O X + o + + + o o + X # o # o o O o # o + X + o + + + + # o X + o + X + + + + + o + $ * * %     ",
"    % * * * # # # $ $ $ # # $ # # # $ $ $ $ $ # # # # # # # # # # # # # # $ # # # $ $ $ # # # # # # # # $ $ # # # $ * * * *     ",
"    * % * * , ; ; * * * * ; ; ; ; ; ; * * * * ; ; ; ; * ; ; ; ; ; ; ; ; ; * ; ; ; * * * % ; ; ; ; ; ; ; * % % ; ; ; * * $ *     ",
"    * * % ; 9 0 9 : % * : : > : < : > : * ; : : < : : : : > : : > : : : < : : : : : * * : : > : < : : : ; * : > r 0 ; * * *     ",
"    * * * ; e h 9 : ; = : > > > > > 1 : ; * : > > > > > > > > > > > > > > > > 9 > : ; ; : > > > > > > : % ; : 0 h t ; * * *     ",
"        * ; t h 0 : = ; : > > > > > > : ; = : > > > > > > > > > > > > > > > > > > : ; * : > > > > > > : ; = : 0 h e ; *         ",
"        * ; t h 1 > ; % : 4 > > > > > : * ; : > > > > > > > > > > > > > > > > > > : ; ; : > > > > 4 1 : = = : 9 g e , $         ",
"        $ ; e h 0 : ; = : > > > > > > : % ; : > > > > > > > > > > > > > > > > > > : = = : > > > > > > : ; ; : 0 h e , *         ",
"        * : e g 4 : % ; : > > > > > > : % % : > > > > > > > > > > > > > > > > > > : % = : > > > > > > : = ; : > h e , $         ",
"        # , e g 0 > ; % : > 4 > > > > : @ & : > > > > > > > 4 > > > > > > 9 > > > : @ & : > > > > > > : - = : g h g ; $         ",
"        * , e h 4 : % $ : : 3 3 : : > - @ + ; 3 : : : : > : : : : : : : : : : : > ; + + - : > : : : : : @ = : > g 0 : $         ",
"        # , r g 4 : @ @ & - ; * = ; ; $ o + & ; ; ; * ; 2 & - * ; ; ; ; ; ; ; ; * & @ + & % 2 2 ; ; ; % + $ : > h t ; *         ",
"        # : w h 0 : @ o @ & & * % % % % # + # & * % % # & & # & # # # $ $ $ # # # @ + X @ & @ & # & # # o @ : 0 h t ; #         ",
"        # : 0 h 4 : @ . o + & & & # & & & & & & & & + + X + + + # o + + + + + + + + X X + X o o o + + o X @ : 0 h e ; *         ",
"        # : g h 0 : @ . o o @ & & & & & & & & & & & + + + + X X X X X X X X X o o + + + + + o X o X X X X + - > g w , #         ",
"        # , t h 4 > @ X X X o o X + + + & & & & & & & & & & + X X X X X o X X o @ & & @ & + & & X X X X X @ : 4 h e 6 #         ",
"        # , w h 4 : @ X X X X X o o + + & & & & & & & & & + + X o + + + o X o o @ & @ & & & & + o X o o o @ : 0 g e , #         ",
"        # ; w h 4 4 @ X X X X o @ & + & o & & & & & & & + X X + + & & @ o X X X + + o + & & @ + X o @ & & & : 4 h w ; #         ",
"        $ ; e h 4 3 @ X o o o @ & & & & + + + @ & + & @ + X X + @ & & @ o X X X X X X + & & + + o @ & & & - 4 e g e : #         ",
"        # , r j e 4 & o @ & @ & & & & & & & + + + o + X X X X X o o o o o o X X X X X o @ & & & & & & & & 3 4 h j r , #         ",
"        $ , 9 t e 3 & X @ @ & & & & - - 2 - & @ @ @ + X X X X X X X . X X o & - @ & & - - - & @ @ @ & & & - 4 e t 9 , #         ",
"        * * ; , 3 & + X X o o o @ & 4 e e e 4 e e 3 @ . X X X X X X X X X + 3 4 e 4 4 e e 4 & + o o + X + @ * 6 ; ; * $         ",
"        # * ; ; 3 - & @ & & & @ + & h n n n n n n h & & 2 2 + X X + 2 2 + 3 e n n n n n n h - + @ & & @ @ % * ; , ; * *         ",
"        $ ; 9 r e 0 0 0 0 9 9 4 = < M Z U Z Z U U m , 7 K H 2 . . 2 J K 7 6 m A U Z U U Z m < % 4 4 4 4 4 4 e e e 9 ; #         ",
"        # , z n n n n n n n m h , < N Z Z Z Z U U m 6 8 T R p 5 2 a R I 8 6 m Z Z Z U U Z N < : h n n M n b n n n j , #         ",
"        O , m Z Z Z Z U U U U m , ; g n n n n n n g * 5 F I T R R R T H 5 * h n n n n n n g = < M U U U U U U U U m 3 O         ",
"        O , m Z Z Z Z Z U U U m ; % 0 j h h h h h e * * a L E Q Q E P D * % 0 h h g h h h 0 $ ; m U U U U U U U U m ; O         ",
"        O ; g m n n n n n n n g = $ 0 j h h h h h w & * D K L I P P K D 2 % 0 h h j h j j 0 $ = h n n n n n n n n g ; X         ",
"        X % e h h h h h h h h 0 = $ 0 j j h j h h 0 % * s G F F G G G a * & 0 h j h j h j 0 = = e j h h h h h j h e % O         ",
"        O % e h h h h h h h h e $ % e h j h h j z 0 % % r b b b b b b r % = r j j h h h j e $ = e j h h h j h h h w % +         ",
"        O % 0 j j h j j h j h 0 % $ e j j j j j h r % % e j j j h h h e % % 9 j j j j j j 1 = $ 4 j j j j h j j h e * O         ",
"        o % e j j j h j h h j 0 = = 0 j j j h j j 0 = = 0 j j h j j j 0 = = 0 j j h j h j e = = 0 j j j j h h j j w = O         ",
"        O % 1 0 r e 0 e e e e < $ $ 1 0 0 0 0 e 0 > $ # 1 0 e e 0 e e < # $ 1 0 e 0 e 0 e < $ $ 1 e 0 0 e 0 e e e < % o         ",
"          o % % % % = % % = = $ O # % = % % = % % $ O # % = = = % = = % O # % = = % % % = # # # $ = % % % % % % % $ O           ",
"            o O o O o O O O O O # O o O O O o O O O # O O o O O o O o O O O O o O O O O o O O O O O O O O o O O O o             ",
"                                                                                                                                ",
"                                                                                                                                ",
"                                                                                                                                ",
"                                                                                                                                "
};
