/* XPM */
static char *_ec65f7925c346bfd5fb0ee44c75b1dbyoYzEqNeJmKUYKN7[] = {
/* columns rows colors chars-per-pixel */
"32 32 199 2 ",
"   c None",
".  c #0D0225",
"X  c #110325",
"o  c #270724",
"O  c #270E27",
"+  c #2C0B25",
"@  c #340D24",
"#  c #390F25",
"$  c #371127",
"%  c #3B1524",
"&  c #3E1528",
"*  c #74211F",
"=  c #4B0C23",
"-  c #431523",
";  c #441924",
":  c #491E27",
">  c #441C29",
",  c #4A1F29",
"<  c #4C1324",
"1  c #511723",
"2  c #651322",
"3  c #6C1E22",
"4  c #741721",
"5  c #7C1C21",
"6  c #791A22",
"7  c #4B242C",
"8  c #4D2D33",
"9  c #432736",
"0  c #4D393B",
"q  c #4A3538",
"w  c #6F242A",
"e  c #662827",
"r  c #7E2320",
"t  c #70362D",
"y  c #65363E",
"u  c #745344",
"i  c #831B1E",
"p  c #822F1F",
"a  c #92271F",
"s  c #9D271F",
"d  c #9E2E1E",
"f  c #A32D1F",
"g  c #A43E1F",
"h  c #841B22",
"j  c #881E21",
"k  c #862224",
"l  c #8B2323",
"z  c #8F2823",
"x  c #88272C",
"c  c #932723",
"v  c #942C21",
"b  c #9A2D21",
"n  c #972B26",
"m  c #813021",
"M  c #8B3723",
"N  c #953226",
"B  c #93342A",
"V  c #9A352A",
"C  c #932F30",
"Z  c #943B3B",
"A  c #A22C22",
"S  c #AA2F25",
"D  c #A33222",
"F  c #AC3324",
"G  c #A53C24",
"H  c #AB3D25",
"J  c #A5332A",
"K  c #AB3529",
"L  c #A33A2D",
"P  c #AC3B2B",
"I  c #B23526",
"U  c #BB3627",
"Y  c #B63A26",
"T  c #B83B26",
"R  c #B63A2A",
"E  c #BB3B29",
"W  c #A43C33",
"Q  c #AC3F30",
"!  c #C03E28",
"~  c #96472F",
"^  c #9B4137",
"/  c #A44022",
"(  c #A94523",
")  c #AE4A27",
"_  c #AE4B28",
"`  c #B24422",
"'  c #B94126",
"]  c #B44A25",
"[  c #B5422B",
"{  c #BB442C",
"}  c #BA482B",
"|  c #B14B2F",
" . c #B5532E",
".. c #BA542B",
"X. c #AC4D3C",
"o. c #A74A32",
"O. c #BC4530",
"+. c #B44D3C",
"@. c #B94934",
"#. c #BB5B31",
"$. c #B75637",
"%. c #BE653D",
"&. c #BE683D",
"*. c #BD6036",
"=. c #C2442B",
"-. c #C44C2C",
";. c #C84F2D",
":. c #C4512F",
">. c #CA512D",
",. c #CE5322",
"<. c #DD5A22",
"1. c #C55233",
"2. c #CB5331",
"3. c #CE5932",
"4. c #C45C3C",
"5. c #CC5C3C",
"6. c #CA553B",
"7. c #D35B34",
"8. c #D05736",
"9. c #DB652F",
"0. c #CE623D",
"q. c #C36A3B",
"w. c #DB6332",
"e. c #DB6636",
"r. c #C8723F",
"t. c #E36227",
"y. c #E2662D",
"u. c #EB6D2E",
"i. c #E16934",
"p. c #EC7334",
"a. c #EC763E",
"s. c #EF7D3D",
"d. c #E57139",
"f. c #F07536",
"g. c #AC4F40",
"h. c #A24C42",
"j. c #AF5A4D",
"k. c #A95043",
"l. c #B95A46",
"z. c #B65E4E",
"x. c #B65745",
"c. c #BA624E",
"v. c #BB774F",
"b. c #A46151",
"n. c #B46152",
"m. c #BD6953",
"M. c #A27150",
"N. c #A26B61",
"B. c #AC786A",
"V. c #C66344",
"C. c #D06D46",
"Z. c #C77449",
"A. c #C56A53",
"S. c #D77550",
"D. c #F07F40",
"F. c #E27747",
"G. c #F8823F",
"H. c #A18D5C",
"J. c #BD826E",
"K. c #D0804F",
"L. c #C58353",
"P. c #C88556",
"I. c #DF8352",
"U. c #EA8447",
"Y. c #F58242",
"T. c #F48C43",
"R. c #FA8B46",
"E. c #F2874B",
"W. c #FB924A",
"Q. c #F79247",
"!. c #E68954",
"~. c #EC9355",
"^. c #E49F5E",
"/. c #EE9B5E",
"(. c #FB9C57",
"). c #F49855",
"_. c #EBAD5D",
"`. c #FDA35B",
"'. c #FDA057",
"]. c #CE836C",
"[. c #DC8B6D",
"{. c #D3856A",
"}. c #C99A60",
"|. c #D08772",
" X c #DC957B",
".X c #E0987E",
"XX c #CAAA68",
"oX c #EDA560",
"OX c #F1A461",
"+X c #EEB467",
"@X c #EEBF6E",
"#X c #FEB363",
"$X c #F1B869",
"%X c #FFC76D",
"&X c #FECD6E",
"*X c #FFCF70",
"=X c #DE9C83",
"-X c #E19F85",
";X c #E4AD96",
/* pixels */
"                                                                ",
"                                                                ",
"                            X X X X X .                         ",
"                            > 7 8 8 7 >                         ",
"                        . > ~ &.L.Z.&.~ & .                     ",
"                        + e %.E.`.`.G.#.e +                     ",
"        X . X X . . . @ w ^ A.I.E.Y.e.:.N 2 # X                 ",
"        8 8 7 7 9 9 9 y h.A.|.[.F.e.>.' g p @ X                 ",
"    . 9 M.L.%.$.b.N.B.J.|..X;X-XS.>.Y F s * @ X                 ",
"    q u L.).s.d.S.].[.[.[. X;X=XV.` F S f p 1 @                 ",
". 0 H.}.Z.5.7.7.0.0.5.6.@.c.|.].@.F K P I F c 3 # .             ",
". 0 XX$X%.J } -.;.=.E K A L x.n.X.[ K J K F A 5 = o             ",
". 8 }._.$.b P [ E E R K b c x Z n.c.W a j h h 4 2 = o X         ",
"X 8 P.~.| A P O.=.=.O.[ G v j C z.m.X.B h 6 h h i 4 < @         ",
"X 8 Z.E.2.R =.>.8.7.7.8.-.[ F F P x.m.c.J s S S b c z 3 $ X     ",
"X 7 q.f.=.F [ -.7.7.7.7.1.-.T F s V j.n.X.R R I A s s * $ X     ",
". 7 #.e.V h v H { =.=.=.} P D a i 5 x Z g.x.Q K j h 5 2 + X     ",
"X 7  .w.P z v b R ! ! E [ [ G N z h h C x.l.+.W x h k 6 < @     ",
"X : ] y.w.1.[ P =.>.;.;.:.:.2.:.} [ [ [ O.+.l.k.W J R P a w @ X ",
"X ; ( t.u.e.2.} } } ;.=.;.;.8.8.2.;.:.} I P X.X.W K | ' D 5 # X ",
"X ; g <.t.y.i.3.H D R ! ! =.O.O.{ =.O.K l k N B x k v b l 2 @ X ",
"X % m ` ,.t.u.9.] ` ;.2.8.6.R Q U U I K c z b v l l b b l 2 @ X ",
"  O % e ` <.t.t.w.i.a.E.).S.$.F I U U R R [ } [ F I ' } K h # X ",
"    . % m ( ( ..9.f.s.W.(.).C.$.6.5.0.0.1.:.;.=.T T =.2.7.o.> X ",
"      O % ; ; e ] t.u.u.p.G.~._.~._.$X^.q.Y ' I A f I 8.!.v.8 X ",
"        X X . % m / ( ( ( #.!.`.`.#X&X+XS.V.V.$. .| 1.i.(.Z.8 X ",
"              O & ; ; : % e #.p.p.G.T.'.+X%X%X+XoX!.U.Y.R.c.7 X ",
"                X X X . . % m g ( ( _ v.^.&X*X%X#X`.W.Y.p.| > X ",
"                          O % : ; ; ; t q.G.Q.Q.Q.Y.f.y.>.V & X ",
"                            X X . . . % M ]  .#.#. ._ / B w $ X ",
"                                      O % : : : 7 : 7 & & $     ",
"                                        X X X X . . X X X X     "
};
